<?xml version="1.0" encoding="utf-8"?>
<!-- Generator: Adobe Illustrator 18.0.0, SVG Export Plug-In . SVG Version: 6.00 Build 0)  -->
<!DOCTYPE svg PUBLIC "-//W3C//DTD SVG 1.1//EN" "http://www.w3.org/Graphics/SVG/1.1/DTD/svg11.dtd">
<svg version="1.1" id="Layer_1" xmlns="http://www.w3.org/2000/svg" xmlns:xlink="http://www.w3.org/1999/xlink" x="0px" y="0px"
	 viewBox="0 0 100 100" enable-background="new 0 0 100 100" xml:space="preserve">
<g id="Layer_1_1_">
</g>
<g id="Layer_3">
	<path fill="none" stroke="#948F8F" stroke-width="3" stroke-miterlimit="10" d="M76.5,58.8C53.8,95,31.2,70,23.5,59
		c-1.2-1.8,0-4.5,2.2-4.5h48.5C76.5,54.5,77.8,57,76.5,58.8z"/>
	<g>
		<path fill="none" stroke="#948F8F" stroke-width="3" stroke-miterlimit="10" d="M50,22.2c0,0-8.8,2.2,0,9.7s-2,12.8-2,12.8"/>
		<path fill="none" stroke="#948F8F" stroke-width="3" stroke-miterlimit="10" d="M50,22.2c0,0-0.5,0.2-1,0.8s-1.5,1.2-1.5,2.2
			c0,0.5,0,0.8,0.2,1.2c0.2,0.5,0.8,1,1,1.5c0.5,0.5,1,1,1.8,1.5c0.3,0.3,0.5,0.5,1,1l1,1c0.2,0.3,0.8,0.8,1,1.3s0.7,1,1,1.5
			c0.2,0.5,0.5,1,0.5,1.5c0.2,0.5,0.2,1.2,0.2,1.8c0,1.2-0.5,2.2-1,3c-0.2,0.5-0.5,0.8-0.7,1s-0.5,0.5-1,0.8c-1.2,1-2.2,1.5-3,1.8
			c-0.8,0.2-1.2,0.2-1.2,0.2s0.2-0.2,0.7-1c0.5-0.5,1.2-1.5,2-2.5c0.2-0.5,0.5-1.2,0.7-1.8c0.3-0.5,0.3-1.2,0.3-1.8
			c0-0.2,0-0.5-0.3-0.8c0-0.2-0.2-0.5-0.5-0.8C51,35.5,51,35.3,50.7,35c-0.2-0.3-0.2-0.5-0.7-0.8c-0.8-0.8-1.2-1.2-2-2
			c-0.7-0.8-1.2-1.5-1.8-2.2c-0.7-0.5-1.2-1.5-1.2-2.5c-0.2-1,0-2.2,0.5-3s1.2-1.2,1.8-1.5c0.5-0.2,1-0.5,1.5-0.5
			C49.5,22.2,50,22.2,50,22.2z"/>
	</g>
	<g>
		<path fill="none" stroke="#948F8F" stroke-width="3" stroke-miterlimit="10" d="M65.5,32.8c0,0-4.7,1.5,0,6.2s-1,8.2-1,8.2"/>
		<path fill="none" stroke="#948F8F" stroke-width="3" stroke-miterlimit="10" d="M65.5,32.8c0,0-0.2,0.2-0.5,0.8s-0.5,1-0.5,1.5
			c0,0.2,0.2,0.5,0.2,0.8c0.2,0.2,0.5,0.5,0.8,0.8s0.5,0.5,1,1c0.2,0.2,0.2,0.2,0.5,0.5l0.5,0.5c0.5,0.5,1,1.2,1,2
			c0.2,0.3,0.2,0.8,0.2,1s0,0.8,0,1c0,0.8-0.2,1.5-0.5,2s-0.8,1-1,1.2c-0.8,0.7-1.5,1-2,1.2s-0.8,0.2-0.8,0.2s0.8-1.2,1-2.5
			c0.2-0.8,0.2-1.5,0-2c0-0.2-0.2-0.5-0.2-1c-0.2-0.2-0.2-0.5-0.5-1c-0.2-0.5-0.8-0.8-1-1.2c-0.5-0.5-0.8-1-1-1.5s-0.5-1.2-0.5-2
			s0-1.5,0.2-2c0.5-1.2,1.5-1.5,2-1.5C65.2,32.8,65.5,32.8,65.5,32.8z"/>
	</g>
	<g>
		<path fill="none" stroke="#948F8F" stroke-width="3" stroke-miterlimit="10" d="M35.5,32.8c0,0-4.8,1.5,0,6.2s-1,8.2-1,8.2"/>
		<path fill="none" stroke="#948F8F" stroke-width="3" stroke-miterlimit="10" d="M35.5,32.8c0,0-0.2,0.2-0.5,0.8s-0.5,1-0.5,1.5
			c0,0.2,0.2,0.5,0.2,0.8c0.3,0.2,0.5,0.5,0.8,0.8c0.3,0.2,0.5,0.5,1,1c0.2,0.2,0.2,0.2,0.5,0.5l0.5,0.5c0.5,0.5,1,1.2,1,2
			c0.2,0.3,0.2,0.8,0.2,1s0,0.8,0,1c0,0.8-0.2,1.5-0.5,2s-0.8,1-1,1.2c-0.8,0.7-1.5,1-2,1.2s-0.8,0.2-0.8,0.2s0.8-1.2,1-2.5
			c0.2-0.8,0.2-1.5,0-2c0-0.2-0.2-0.5-0.2-1c-0.3-0.2-0.3-0.5-0.5-1s-0.8-0.8-1-1.2c-0.5-0.5-0.8-1-1-1.5s-0.5-1.2-0.5-2
			s0-1.5,0.3-2c0.5-1.2,1.5-1.5,2-1.5C35.2,32.8,35.5,32.8,35.5,32.8z"/>
	</g>
</g>
<g id="Layer_4">
</g>
</svg>
