<?xml version="1.0" encoding="utf-8"?>
<!-- Generator: Adobe Illustrator 18.0.0, SVG Export Plug-In . SVG Version: 6.00 Build 0)  -->
<!DOCTYPE svg PUBLIC "-//W3C//DTD SVG 1.1//EN" "http://www.w3.org/Graphics/SVG/1.1/DTD/svg11.dtd">
<svg version="1.1" xmlns="http://www.w3.org/2000/svg" xmlns:xlink="http://www.w3.org/1999/xlink" x="0px" y="0px"
	 viewBox="0 0 100 100" enable-background="new 0 0 100 100" xml:space="preserve">
<g id="Layer_1">
</g>
<g id="Layer_3">
	<path opacity="0.85" fill="#BF0000" stroke="#000000" stroke-width="1.5" stroke-miterlimit="10" d="M75.6,55
		C53.5,87.1,32,64.9,24.5,55.1c-1.3-1.6,0-4,2.1-4h46.9C75.5,51.1,76.7,53.3,75.6,55z"/>
	<g opacity="0.9">
		<g>
			<path d="M50.9,38.6h-3.1v-1.4c0-1.6,0.3-2.9,0.9-3.9s1.2-1.8,1.8-2.4l1.3-1.2c0.9-0.8,1.5-1.5,1.8-2s0.5-1,0.5-1.5
				c0-0.8-0.4-1.5-1.3-2.1c-0.8-0.5-1.9-0.8-3.1-0.8c-1,0-1.9,0.2-2.5,0.5c-0.6,0.3-0.9,0.9-0.9,1.6v0.1h-3.2v-0.1
				c0-0.7,0.3-1.4,0.9-2.1c0.6-0.7,1.4-1.3,2.5-1.7c1.1-0.4,2.2-0.6,3.5-0.6c1.3,0,2.6,0.2,3.7,0.7c1.1,0.4,2,1.1,2.6,1.8
				c0.6,0.8,0.9,1.6,0.9,2.4c0,0.5-0.1,1-0.4,1.7c-0.2,0.7-1,1.6-2.3,2.6l-1.2,1c-0.8,0.6-1.4,1.3-1.9,2c-0.5,0.7-0.7,1.8-0.7,3.3
				V38.6z M50.9,44.3h-3.1v-2.7h3.1V44.3z"/>
		</g>
		<g>
			<path d="M63.9,43h-2v-0.9c0-1,0.2-1.9,0.6-2.6s0.8-1.2,1.2-1.6l0.9-0.8c0.6-0.5,1-1,1.2-1.3s0.4-0.7,0.4-1c0-0.5-0.3-1-0.8-1.4
				c-0.6-0.4-1.3-0.5-2.1-0.5c-0.7,0-1.2,0.1-1.6,0.3c-0.4,0.2-0.6,0.6-0.6,1.1v0.1h-2.1v-0.1c0-0.5,0.2-0.9,0.6-1.4
				c0.4-0.5,0.9-0.8,1.7-1.1s1.5-0.4,2.3-0.4c0.9,0,1.7,0.1,2.5,0.4c0.8,0.3,1.3,0.7,1.7,1.2c0.4,0.5,0.6,1,0.6,1.6
				c0,0.3-0.1,0.7-0.2,1.2c-0.2,0.5-0.7,1-1.5,1.7l-0.8,0.6c-0.5,0.4-0.9,0.9-1.3,1.3c-0.3,0.5-0.5,1.2-0.5,2.2V43z M63.9,46.8h-2
				V45h2V46.8z"/>
		</g>
		<g>
			<path d="M37,43h-2v-0.9c0-1,0.2-1.9,0.6-2.6s0.8-1.2,1.2-1.6l0.9-0.8c0.6-0.5,1-1,1.2-1.3c0.2-0.3,0.4-0.7,0.4-1
				c0-0.5-0.3-1-0.8-1.4c-0.6-0.4-1.3-0.5-2.1-0.5c-0.7,0-1.2,0.1-1.6,0.3c-0.4,0.2-0.6,0.6-0.6,1.1v0.1h-2.1v-0.1
				c0-0.5,0.2-0.9,0.6-1.4c0.4-0.5,0.9-0.8,1.7-1.1s1.5-0.4,2.3-0.4c0.9,0,1.7,0.1,2.5,0.4c0.8,0.3,1.3,0.7,1.7,1.2
				c0.4,0.5,0.6,1,0.6,1.6c0,0.3-0.1,0.7-0.2,1.2c-0.2,0.5-0.7,1-1.5,1.7l-0.8,0.6c-0.5,0.4-0.9,0.9-1.3,1.3
				c-0.3,0.5-0.5,1.2-0.5,2.2V43z M37,46.8h-2V45h2V46.8z"/>
		</g>
	</g>
	<g opacity="0.2">
		<g>
			<path d="M51.7,39.7h-3.1v-1.4c0-1.6,0.3-2.9,0.9-3.9s1.2-1.8,1.8-2.4l1.3-1.2c0.9-0.8,1.5-1.5,1.8-2c0.4-0.5,0.5-1,0.5-1.5
				c0-0.8-0.4-1.5-1.3-2.1c-0.8-0.5-1.9-0.8-3.1-0.8c-1,0-1.9,0.2-2.5,0.5c-0.6,0.3-0.9,0.9-0.9,1.6v0.1H44v-0.1
				c0-0.7,0.3-1.4,0.9-2.1c0.6-0.7,1.4-1.3,2.5-1.7s2.2-0.6,3.5-0.6c1.3,0,2.6,0.2,3.7,0.7c1.1,0.4,2,1.1,2.6,1.8
				c0.6,0.8,0.9,1.6,0.9,2.4c0,0.5-0.1,1-0.4,1.7c-0.2,0.7-1,1.6-2.3,2.6l-1.2,1c-0.8,0.6-1.4,1.3-1.9,2c-0.5,0.7-0.7,1.8-0.7,3.3
				V39.7z M51.7,45.5h-3.1v-2.7h3.1V45.5z"/>
		</g>
		<g>
			<path d="M64.7,44.2h-2v-0.9c0-1,0.2-1.9,0.6-2.6s0.8-1.2,1.2-1.6l0.9-0.8c0.6-0.5,1-1,1.2-1.3c0.2-0.3,0.4-0.7,0.4-1
				c0-0.5-0.3-1-0.8-1.4c-0.6-0.4-1.3-0.5-2.1-0.5c-0.7,0-1.2,0.1-1.6,0.3c-0.4,0.2-0.6,0.6-0.6,1.1v0.1h-2.1v-0.1
				c0-0.5,0.2-0.9,0.6-1.4c0.4-0.5,0.9-0.8,1.7-1.1c0.7-0.3,1.5-0.4,2.3-0.4c0.9,0,1.7,0.1,2.5,0.4c0.8,0.3,1.3,0.7,1.7,1.2
				c0.4,0.5,0.6,1,0.6,1.6c0,0.3-0.1,0.7-0.2,1.2c-0.2,0.5-0.7,1-1.5,1.7l-0.8,0.6c-0.5,0.4-0.9,0.9-1.3,1.3
				c-0.3,0.5-0.5,1.2-0.5,2.2V44.2z M64.7,48h-2v-1.8h2V48z"/>
		</g>
		<g>
			<path d="M37.7,44.2h-2v-0.9c0-1,0.2-1.9,0.6-2.6s0.8-1.2,1.2-1.6l0.9-0.8c0.6-0.5,1-1,1.2-1.3c0.2-0.3,0.4-0.7,0.4-1
				c0-0.5-0.3-1-0.8-1.4C38.5,34.2,37.8,34,37,34c-0.7,0-1.2,0.1-1.6,0.3c-0.4,0.2-0.6,0.6-0.6,1.1v0.1h-2.1v-0.1
				c0-0.5,0.2-0.9,0.6-1.4c0.4-0.5,0.9-0.8,1.7-1.1c0.7-0.3,1.5-0.4,2.3-0.4c0.9,0,1.7,0.1,2.5,0.4c0.8,0.3,1.3,0.7,1.7,1.2
				c0.4,0.5,0.6,1,0.6,1.6c0,0.3-0.1,0.7-0.2,1.2c-0.2,0.5-0.7,1-1.5,1.7l-0.8,0.6c-0.5,0.4-0.9,0.9-1.3,1.3
				c-0.3,0.5-0.5,1.2-0.5,2.2V44.2z M37.7,48h-2v-1.8h2V48z"/>
		</g>
	</g>
	<path opacity="0.75" fill="#FFE6E6" stroke="#000000" stroke-width="1.5" stroke-miterlimit="10" d="M56.4,67.9
		c2.2-1,8.3-4.4,15.6-13c0.2-0.3,0-0.7-0.4-0.7c-2,0.2-6.5,0.5-11.4,0.3c-0.5,0-1,0.3-1.1,0.8c-0.3,2.1-1.1,7.6-3.2,12.1
		C55.8,67.8,56.1,68.1,56.4,67.9z"/>
	<ellipse opacity="0.5" cx="50" cy="76.9" rx="15.2" ry="2.1"/>
	<circle fill="none" stroke="#000000" stroke-width="2" stroke-miterlimit="10" cx="50" cy="50" r="42"/>
	<circle opacity="0.39" fill="none" stroke="#000000" stroke-width="2" stroke-miterlimit="10" cx="50" cy="50" r="40.2"/>
	<g>
		<path fill="#FFFFFF" d="M49.4,38.8h-2.2v-1.3c0-1.5,0.2-2.7,0.6-3.7c0.4-1,0.9-1.7,1.3-2.3l0.9-1.2c0.6-0.8,1.1-1.4,1.3-1.9
			c0.3-0.5,0.4-1,0.4-1.4c0-0.8-0.3-1.4-0.9-2c-0.6-0.5-1.4-0.8-2.3-0.8c-0.8,0-1.4,0.2-1.8,0.5c-0.4,0.3-0.6,0.8-0.6,1.5v0.1h-2.3
			v-0.1c0-0.7,0.2-1.3,0.6-2c0.4-0.7,1-1.2,1.8-1.6c0.8-0.4,1.6-0.6,2.5-0.6c1,0,1.9,0.2,2.7,0.6c0.8,0.4,1.5,1,1.9,1.7
			c0.4,0.7,0.7,1.5,0.7,2.3c0,0.4-0.1,1-0.3,1.7C53.6,29.2,53,30,52.1,31l-0.9,0.9c-0.6,0.6-1,1.3-1.4,1.9c-0.4,0.7-0.5,1.7-0.5,3.1
			V38.8z M49.4,44.4h-2.2v-2.6h2.2V44.4z"/>
	</g>
	<g>
		<path fill="#FFFFFF" d="M62.8,43.1h-1.5v-0.9c0-1,0.1-1.8,0.4-2.5c0.3-0.6,0.6-1.2,0.9-1.5l0.6-0.8c0.4-0.5,0.7-0.9,0.9-1.3
			c0.2-0.3,0.3-0.6,0.3-0.9c0-0.5-0.2-1-0.6-1.3c-0.4-0.3-0.9-0.5-1.5-0.5c-0.5,0-0.9,0.1-1.2,0.3c-0.3,0.2-0.4,0.6-0.4,1v0.1h-1.5
			v-0.1c0-0.4,0.1-0.9,0.4-1.3c0.3-0.5,0.7-0.8,1.2-1.1c0.5-0.3,1.1-0.4,1.7-0.4c0.6,0,1.2,0.1,1.8,0.4c0.5,0.3,1,0.7,1.3,1.2
			c0.3,0.5,0.4,1,0.4,1.5c0,0.3-0.1,0.7-0.2,1.1c-0.1,0.5-0.5,1-1.1,1.7l-0.6,0.6c-0.4,0.4-0.7,0.8-0.9,1.3
			c-0.2,0.4-0.4,1.1-0.4,2.1V43.1z M62.8,46.7h-1.5V45h1.5V46.7z"/>
	</g>
	<g>
		<path fill="#FFFFFF" d="M35.8,43.1h-1.6v-0.9c0-1,0.1-1.8,0.4-2.5c0.3-0.6,0.6-1.2,1-1.5l0.7-0.8c0.4-0.5,0.8-0.9,1-1.3
			c0.2-0.3,0.3-0.6,0.3-0.9c0-0.5-0.2-1-0.7-1.3c-0.4-0.3-1-0.5-1.6-0.5c-0.6,0-1,0.1-1.3,0.3c-0.3,0.2-0.5,0.6-0.5,1v0.1h-1.7v-0.1
			c0-0.4,0.2-0.9,0.5-1.3c0.3-0.5,0.7-0.8,1.3-1.1c0.6-0.3,1.2-0.4,1.8-0.4c0.7,0,1.4,0.1,2,0.4c0.6,0.3,1.1,0.7,1.4,1.2
			c0.3,0.5,0.5,1,0.5,1.5c0,0.3-0.1,0.7-0.2,1.1c-0.1,0.5-0.5,1-1.2,1.7l-0.6,0.6c-0.4,0.4-0.7,0.8-1,1.3c-0.3,0.4-0.4,1.1-0.4,2.1
			V43.1z M35.8,46.7h-1.6V45h1.6V46.7z"/>
	</g>
</g>
<g id="Layer_4">
</g>
</svg>
